<?xml version="1.0" encoding="utf-8"?>
<!-- Generator: Adobe Illustrator 22.0.1, SVG Export Plug-In . SVG Version: 6.00 Build 0)  -->
<svg version="1.1" id="Layer_1" xmlns="http://www.w3.org/2000/svg" xmlns:xlink="http://www.w3.org/1999/xlink" x="0px" y="0px"
	 viewBox="0 0 612 612" style="enable-background:new 0 0 612 612;" xml:space="preserve">
<style type="text/css">
	.st0{fill:#FFFFFF;stroke:#000000;stroke-width:30;stroke-miterlimit:10;}
</style>
<circle class="st0" cx="306" cy="304.1" r="272.6"/>
<path d="M278.2,335.4h55.7v218.3c-19.4,3-37.9,2.8-55.7,0V335.4z"/>
<path d="M333.8,323.1h-55.7v-19.2c18.6-9.6,37.1-9.6,55.7,0V323.1z"/>
<path d="M393.5,302.2h-39.7c-44.8-23.9-50.2-23.4-95.4,0h-39.7v-85.7l174.7-0.3v86H393.5z"/>
<path d="M218.6,152h39.7c44.8,23.9,50.2,23.4,95.4,0h39.7v85.7L218.7,238v-86H218.6z"/>
<path d="M278.2,138.3h55.7v14c-18.6,7-37.1,7-55.7,0V138.3z"/>
<path d="M333.8,126h-55.7v-8.1c18.6-4.1,37.1-4.1,55.7,0V126z"/>
<polygon points="206.3,309.6 113.2,309.6 113.2,143.1 206.3,143.1 206.3,201.7 206.3,206.3 206.3,246.4 206.3,251 "/>
<polygon points="405.7,143.1 498.8,143.1 498.8,309.6 405.7,309.6 405.7,251 405.7,246.4 405.7,206.3 405.7,201.7 "/>
<path d="M218.5,152h39.7c44.8,23.9,50.2,23.4,95.4,0h39.7v85.7L218.6,238v-86H218.5z"/>
</svg>
