<?xml version="1.0" encoding="utf-8"?>
<!-- Generator: Adobe Illustrator 22.0.1, SVG Export Plug-In . SVG Version: 6.00 Build 0)  -->
<svg version="1.1" id="Layer_1" xmlns="http://www.w3.org/2000/svg" xmlns:xlink="http://www.w3.org/1999/xlink" x="0px" y="0px"
	 viewBox="0 0 612 612" style="enable-background:new 0 0 612 612;" xml:space="preserve">
<g>
	<g>
		<rect x="225.5" y="169.1" width="15" height="273.8"/>
	</g>
</g>
<g>
	<path d="M240.5,169.1h-15c0-44.4,36.1-80.5,80.5-80.5v15C269.9,103.6,240.5,133,240.5,169.1z"/>
</g>
<g>
	<path d="M386.5,169.1h-15c0-36.1-29.4-65.5-65.5-65.5v-15C350.4,88.6,386.5,124.7,386.5,169.1z"/>
</g>
<g>
	<g>
		<rect x="371.5" y="169.1" width="15" height="211.6"/>
	</g>
</g>
<g>
	<path d="M306,523.4v-15c36.1,0,65.5-29.4,65.5-65.5h15C386.5,487.3,350.4,523.4,306,523.4z"/>
</g>
<g>
	<path d="M306,523.4c-44.4,0-80.5-36.1-80.5-80.5h15c0,36.1,29.4,65.5,65.5,65.5V523.4z"/>
</g>
<g>
	<g>
		<rect x="199.2" y="169.1" width="15" height="273.8"/>
	</g>
</g>
<g>
	<g>
		<rect x="397.8" y="169.1" width="15" height="213.1"/>
	</g>
</g>
<g>
	<path d="M214.2,169.1h-15c0-58.9,47.9-106.8,106.8-106.8v15C255.4,77.3,214.2,118.5,214.2,169.1z"/>
</g>
<g>
	<path d="M412.8,169.2h-15c0-50.6-41.2-91.8-91.8-91.8v-15C364.9,62.4,412.8,110.3,412.8,169.2z"/>
</g>
<g>
	<path d="M306,549.7v-15c50.6,0,91.8-41.2,91.8-91.8h15C412.8,501.8,364.9,549.7,306,549.7z"/>
</g>
<g>
	<path d="M306,549.6c-58.9,0-106.8-47.9-106.8-106.8h15c0,50.6,41.2,91.8,91.8,91.8V549.6z"/>
</g>
<g>
	<g>
		<rect x="173" y="169.1" width="15" height="273.8"/>
	</g>
</g>
<g>
	<g>
		<rect x="424" y="169.1" width="15" height="217.4"/>
	</g>
</g>
<g>
	<path d="M188,169.1h-15c0-35.6,13.8-69,38.9-94.1s58.5-38.9,94.1-38.9v15C240.9,51.1,188,104,188,169.1z"/>
</g>
<g>
	<path d="M439,169.1h-15c0-65.1-52.9-118-118-118v-15c35.6,0,69,13.8,94.1,38.9C425.2,100.1,439,133.5,439,169.1z"/>
</g>
<g>
	<path d="M306,575.9c-35.6,0-69-13.8-94.1-38.9S173,478.5,173,442.9h15c0,65.1,52.9,118,118,118V575.9z"/>
</g>
<g>
	<path d="M306,575.9v-15c65.1,0,118-52.9,118-118h15c0,35.6-13.8,69-38.9,94.1C375,562.1,341.6,575.9,306,575.9z"/>
</g>
<g>
	<g>
		<rect x="240.5" y="225.5" width="138.6" height="15"/>
	</g>
</g>
<g>
	<path d="M523.4,306h-15c0-36.1-29.4-65.5-65.5-65.5v-15C487.3,225.5,523.4,261.6,523.4,306z"/>
</g>
<g>
	<path d="M442.9,386.5v-15c36.1,0,65.5-29.4,65.5-65.5h15C523.4,350.4,487.3,386.5,442.9,386.5z"/>
</g>
<g>
	<g>
		<rect x="233" y="371.5" width="200.8" height="15"/>
	</g>
</g>
<g>
	<path d="M169.1,386.5c-44.4,0-80.5-36.1-80.5-80.5h15c0,36.1,29.4,65.5,65.5,65.5V386.5z"/>
</g>
<g>
	<path d="M103.6,306h-15c0-44.4,36.1-80.5,80.5-80.5v15C133,240.5,103.6,269.9,103.6,306z"/>
</g>
<g>
	<g>
		<rect x="240.5" y="199.2" width="138.6" height="15"/>
	</g>
</g>
<g>
	<g>
		<rect x="234" y="397.8" width="203.3" height="15"/>
	</g>
</g>
<g>
	<path d="M549.7,306h-15c0-50.6-41.2-91.8-91.8-91.8v-15C501.8,199.2,549.7,247.1,549.7,306z"/>
</g>
<g>
	<path d="M442.8,412.8v-15c50.6,0,91.8-41.2,91.8-91.8h15C549.6,364.9,501.7,412.8,442.8,412.8z"/>
</g>
<g>
	<path d="M169.1,412.8c-58.9,0-106.8-47.9-106.8-106.8h15c0,50.6,41.2,91.8,91.8,91.8V412.8z"/>
</g>
<g>
	<path d="M77.4,306h-15c0-58.9,47.9-106.8,106.8-106.8v15C118.6,214.2,77.4,255.4,77.4,306z"/>
</g>
<g>
	<g>
		<rect x="240.5" y="173" width="140" height="15"/>
	</g>
</g>
<g>
	<g>
		<rect x="233" y="424" width="206" height="15"/>
	</g>
</g>
<g>
	<path d="M575.9,306h-15c0-65.1-52.9-118-118-118v-15c35.6,0,69,13.8,94.1,38.9S575.9,270.4,575.9,306z"/>
</g>
<g>
	<path d="M442.9,439v-15c65.1,0,118-52.9,118-118h15c0,35.6-13.8,69-38.9,94.1C511.9,425.2,478.5,439,442.9,439z"/>
</g>
<g>
	<path d="M51.1,306h-15c0-35.6,13.8-69,38.9-94.1s58.5-38.9,94.1-38.9v15C104,188,51.1,240.9,51.1,306z"/>
</g>
<g>
	<path d="M169.1,439c-35.6,0-69-13.8-94.1-38.9C49.9,375,36.1,341.6,36.1,306h15c0,65.1,52.9,118,118,118V439z"/>
</g>
<g>
	<g>
		<rect x="169.1" y="173" width="6.9" height="15"/>
	</g>
</g>
<g>
	<g>
		<rect x="169.1" y="199.2" width="6.9" height="15"/>
	</g>
</g>
<g>
	<g>
		<rect x="169.1" y="225.5" width="6.9" height="15"/>
	</g>
</g>
<g>
	<g>
		<rect x="169.1" y="371.5" width="6.9" height="15"/>
	</g>
</g>
<g>
	<g>
		<rect x="169.1" y="397.8" width="6.9" height="15"/>
	</g>
</g>
<g>
	<g>
		<rect x="169.1" y="424" width="6.9" height="15"/>
	</g>
</g>
<g>
	<g>
		<rect x="436" y="371.5" width="6.9" height="15"/>
	</g>
</g>
<g>
	<g>
		<rect x="436" y="397.8" width="6.9" height="15"/>
	</g>
</g>
<g>
	<g>
		<rect x="436" y="424" width="6.9" height="15"/>
	</g>
</g>
<g>
	<g>
		<rect x="436" y="173" width="6.9" height="15"/>
	</g>
</g>
<g>
	<g>
		<rect x="436" y="199.2" width="6.9" height="15"/>
	</g>
</g>
<g>
	<g>
		<rect x="436" y="225.5" width="6.9" height="15"/>
	</g>
</g>
<g>
	<g>
		<rect x="424" y="436" width="15" height="6.9"/>
	</g>
</g>
<g>
	<g>
		<rect x="397.8" y="436" width="15" height="6.9"/>
	</g>
</g>
<g>
	<g>
		<rect x="371.5" y="436" width="15" height="6.9"/>
	</g>
</g>
</svg>
