<?xml version="1.0" encoding="utf-8"?>
<!-- Generator: Adobe Illustrator 22.0.1, SVG Export Plug-In . SVG Version: 6.00 Build 0)  -->
<svg version="1.1" id="Layer_1" xmlns="http://www.w3.org/2000/svg" xmlns:xlink="http://www.w3.org/1999/xlink" x="0px" y="0px"
	 viewBox="0 0 612 612" style="enable-background:new 0 0 612 612;" xml:space="preserve">
<path d="M306,72L72,306l234,234l234-234L306,72z M211.6,306l94.4-94.4l94.4,94.4L306,400.4L211.6,306z"/>
<path d="M306,7.9L9,306l297,298.1L603,306L306,7.9z M23.4,306L306,22.3L588.6,306L306,589.7L23.4,306z"/>
<rect x="264.2" y="264.2" transform="matrix(0.7071 -0.7071 0.7071 0.7071 -126.7493 306)" width="83.5" height="83.5"/>
<path d="M516.8,95.2L96,96l-0.8,420.8L516,516L516.8,95.2z M106.2,106.2l400.4-0.8l-0.8,400.4l-400.4,0.8L106.2,106.2z"/>
</svg>
